<svg xmlns="http://www.w3.org/2000/svg" width="1080" height="1080" viewBox="-0.0 -305.0 1080 1080" font-family="Helvetica,Arial,sans-serif"><rect x="-0.0" y="-305.0" width="1080" height="1080" fill="#ffffff"/><text x="540.0" y="34" text-anchor="middle" font-size="20" font-weight="bold" fill="#0b5563">DFD · Поток генерации изображения «гость + локация»</text><defs><marker id="arr" markerWidth="10" markerHeight="10" refX="8" refY="3" orient="auto" markerUnits="strokeWidth"><path d="M0,0 L8,3 L0,6 Z" fill="#4a8a94"/></marker></defs><rect x="40" y="150" width="180" height="110" rx="10" fill="#e8f1f2" stroke="#0b5563" stroke-width="2"/><text x="130.0" y="201.0" text-anchor="middle" font-size="13.5" font-weight="bold" fill="#14313a">Фото гостя</text><text x="130.0" y="222.0" text-anchor="middle" font-size="10.5" fill="#3a555c">iPad / загрузка</text><rect x="250" y="150" width="180" height="110" rx="10" fill="#e8f1f2" stroke="#0b5563" stroke-width="2"/><text x="340.0" y="201.0" text-anchor="middle" font-size="13.5" font-weight="bold" fill="#14313a">Задание генерации</text><text x="340.0" y="222.0" text-anchor="middle" font-size="10.5" fill="#3a555c">фото + референс + промпт</text><line x1="220" y1="205.0" x2="250" y2="205.0" stroke="#4a8a94" stroke-width="2" marker-end="url(#arr)"/><rect x="460" y="150" width="180" height="110" rx="10" fill="#0b5563" stroke="#0b5563" stroke-width="2"/><text x="550.0" y="201.0" text-anchor="middle" font-size="13.5" font-weight="bold" fill="#fff">Nano Banana Pro</text><text x="550.0" y="222.0" text-anchor="middle" font-size="10.5" fill="#d7e7ea">2–3 варианта, лицо</text><line x1="430" y1="205.0" x2="460" y2="205.0" stroke="#4a8a94" stroke-width="2" marker-end="url(#arr)"/><rect x="670" y="150" width="180" height="110" rx="10" fill="#e8f1f2" stroke="#0b5563" stroke-width="2"/><text x="760.0" y="201.0" text-anchor="middle" font-size="13.5" font-weight="bold" fill="#14313a">Выбор + композитинг</text><text x="760.0" y="222.0" text-anchor="middle" font-size="10.5" fill="#3a555c">шаблон + логотипы</text><line x1="640" y1="205.0" x2="670" y2="205.0" stroke="#4a8a94" stroke-width="2" marker-end="url(#arr)"/><rect x="880" y="150" width="180" height="110" rx="10" fill="#e8f1f2" stroke="#0b5563" stroke-width="2"/><text x="970.0" y="201.0" text-anchor="middle" font-size="13.5" font-weight="bold" fill="#14313a">Результат</text><text x="970.0" y="222.0" text-anchor="middle" font-size="10.5" fill="#3a555c">печать + цифровая версия</text><line x1="850" y1="205.0" x2="880" y2="205.0" stroke="#4a8a94" stroke-width="2" marker-end="url(#arr)"/><rect x="160.0" y="20" width="270.0" height="64" rx="10" fill="#f2f4f5" stroke="#14707f" stroke-width="2"/><text x="295.0" y="39.5" text-anchor="middle" font-size="13.5" font-weight="bold" fill="#14313a">Хранилище: референсы локаций +</text><text x="295.0" y="56.5" text-anchor="middle" font-size="13.5" font-weight="bold" fill="#14313a">промпты</text><text x="295.0" y="77.5" text-anchor="middle" font-size="10.5" fill="#3a555c">подготовленные сцены Сахалина, пресеты</text><line x1="340.0" y1="84" x2="340.0" y2="150" stroke="#4a8a94" stroke-width="2" marker-end="url(#arr)"/><rect x="283.3" y="108.0" width="113.4" height="16" rx="3" fill="#ffffff" opacity="0.92"/><text x="340.0" y="120.0" text-anchor="middle" font-size="10" fill="#3a555c">референс + промпт</text><rect x="460" y="320" width="180" height="74" rx="10" fill="#fff" stroke="#d97a25" stroke-width="2"/><text x="550.0" y="344.5" text-anchor="middle" font-size="13.5" font-weight="bold" fill="#d97a25">Replicate / локальный</text><text x="550.0" y="361.5" text-anchor="middle" font-size="13.5" font-weight="bold" fill="#d97a25">GPU</text><text x="550.0" y="382.5" text-anchor="middle" font-size="10.5" fill="#3a555c">альтернатива и offline-резерв</text><line x1="550.0" y1="320" x2="550.0" y2="260" stroke="#d97a25" stroke-width="2" stroke-dasharray="6 4" marker-end="url(#arr)"/><rect x="490.2" y="281.0" width="119.60000000000001" height="16" rx="3" fill="#ffffff" opacity="0.92"/><text x="550.0" y="293.0" text-anchor="middle" font-size="10" fill="#3a555c">при сбое основного</text></svg>