<svg xmlns="http://www.w3.org/2000/svg" width="1040" height="1040" viewBox="-0.0 -210.0 1040 1040" font-family="Helvetica,Arial,sans-serif"><rect x="-0.0" y="-210.0" width="1040" height="1040" fill="#ffffff"/><text x="520.0" y="34" text-anchor="middle" font-size="20" font-weight="bold" fill="#0b5563">Последовательность · полный цикл гостя с fallback</text><defs><marker id="arr" markerWidth="10" markerHeight="10" refX="8" refY="3" orient="auto" markerUnits="strokeWidth"><path d="M0,0 L8,3 L0,6 Z" fill="#4a8a94"/></marker></defs><rect x="50" y="70" width="140" height="34" rx="8" fill="#0b5563"/><text x="120" y="92" text-anchor="middle" font-size="12.5" font-weight="bold" fill="#fff">Гость</text><line x1="120" y1="104" x2="120" y2="580" stroke="#c3ccce" stroke-width="1.5"/><rect x="230" y="70" width="140" height="34" rx="8" fill="#0b5563"/><text x="300" y="92" text-anchor="middle" font-size="12.5" font-weight="bold" fill="#fff">Киоск-UI</text><line x1="300" y1="104" x2="300" y2="580" stroke="#c3ccce" stroke-width="1.5"/><rect x="410" y="70" width="140" height="34" rx="8" fill="#0b5563"/><text x="480" y="92" text-anchor="middle" font-size="12.5" font-weight="bold" fill="#fff">Сервис</text><line x1="480" y1="104" x2="480" y2="580" stroke="#c3ccce" stroke-width="1.5"/><rect x="570" y="70" width="140" height="34" rx="8" fill="#0b5563"/><text x="640" y="92" text-anchor="middle" font-size="12.5" font-weight="bold" fill="#fff">Коннектор</text><line x1="640" y1="104" x2="640" y2="580" stroke="#c3ccce" stroke-width="1.5"/><rect x="750" y="70" width="140" height="34" rx="8" fill="#0b5563"/><text x="820" y="92" text-anchor="middle" font-size="12.5" font-weight="bold" fill="#fff">Облако/GPU</text><line x1="820" y1="104" x2="820" y2="580" stroke="#c3ccce" stroke-width="1.5"/><rect x="890" y="70" width="140" height="34" rx="8" fill="#0b5563"/><text x="960" y="92" text-anchor="middle" font-size="12.5" font-weight="bold" fill="#fff">Принтер/QR</text><line x1="960" y1="104" x2="960" y2="580" stroke="#c3ccce" stroke-width="1.5"/><line x1="120" y1="150" x2="300" y2="150" stroke="#4a8a94" stroke-width="2" marker-end="url(#arr)"/><text x="210.0" y="144" text-anchor="middle" font-size="10.5" fill="#3a555c">согласие + фото / QR</text><line x1="300" y1="190" x2="480" y2="190" stroke="#4a8a94" stroke-width="2" marker-end="url(#arr)"/><text x="390.0" y="184" text-anchor="middle" font-size="10.5" fill="#3a555c">выбор локации + фото</text><line x1="480" y1="230" x2="640" y2="230" stroke="#4a8a94" stroke-width="2" marker-end="url(#arr)"/><text x="560.0" y="224" text-anchor="middle" font-size="10.5" fill="#3a555c">задание генерации</text><line x1="640" y1="270" x2="820" y2="270" stroke="#4a8a94" stroke-width="2" marker-end="url(#arr)"/><text x="730.0" y="264" text-anchor="middle" font-size="10.5" fill="#3a555c">запрос (облако)</text><rect x="640" y="300" width="180" height="34" rx="6" fill="#fff8f0" stroke="#d97a25"/><text x="730" y="322" text-anchor="middle" font-size="10.5" fill="#d97a25">alt: облако недоступно → GPU</text><line x1="640" y1="360" x2="820" y2="360" stroke="#d97a25" stroke-width="2" stroke-dasharray="5 4" marker-end="url(#arr)"/><text x="730.0" y="354" text-anchor="middle" font-size="10.5" fill="#3a555c">fallback: локальная генерация</text><line x1="820" y1="400" x2="640" y2="400" stroke="#4a8a94" stroke-width="2" marker-end="url(#arr)"/><text x="730.0" y="394" text-anchor="middle" font-size="10.5" fill="#3a555c">2–3 готовых варианта</text><line x1="640" y1="440" x2="480" y2="440" stroke="#4a8a94" stroke-width="2" marker-end="url(#arr)"/><text x="560.0" y="434" text-anchor="middle" font-size="10.5" fill="#3a555c">варианты → гость выбирает 1</text><line x1="480" y1="480" x2="960" y2="480" stroke="#4a8a94" stroke-width="2" marker-end="url(#arr)"/><text x="720.0" y="474" text-anchor="middle" font-size="10.5" fill="#3a555c">композитинг карточки + печать + QR</text><line x1="960" y1="520" x2="120" y2="520" stroke="#4a8a94" stroke-width="2" marker-end="url(#arr)"/><text x="540.0" y="514" text-anchor="middle" font-size="10.5" fill="#3a555c">карточка + цифровая версия</text></svg>