<svg xmlns="http://www.w3.org/2000/svg" width="1000" height="1000" viewBox="-0.0 -160.0 1000 1000" font-family="Helvetica,Arial,sans-serif"><rect x="-0.0" y="-160.0" width="1000" height="1000" fill="#ffffff"/><text x="500.0" y="34" text-anchor="middle" font-size="20" font-weight="bold" fill="#0b5563">C4 · Контекст системы — «Машина времени: Сахалин»</text><defs><marker id="arr" markerWidth="10" markerHeight="10" refX="8" refY="3" orient="auto" markerUnits="strokeWidth"><path d="M0,0 L8,3 L0,6 Z" fill="#4a8a94"/></marker></defs><rect x="360" y="270" width="280" height="150" rx="10" fill="#0b5563" stroke="#0b5563" stroke-width="2"/><text x="500.0" y="334.5" text-anchor="middle" font-size="13.5" font-weight="bold" fill="#fff">Ядро «Машина времени: Сахалин»</text><text x="500.0" y="355.5" text-anchor="middle" font-size="10.5" fill="#d7e7ea">Стенд-киоск + веб-версия: съёмка/загрузка,</text><text x="500.0" y="368.5" text-anchor="middle" font-size="10.5" fill="#d7e7ea">генерация, печать, QR</text><circle cx="120" cy="170" r="16" fill="#0b5563"/><circle cx="120" cy="166" r="6" fill="#fff"/><rect x="111" y="171" width="18" height="12" rx="5" fill="#fff"/><text x="120" y="202" text-anchor="middle" font-size="12" font-weight="bold" fill="#14313a">Гость (стенд)</text><text x="120" y="216" text-anchor="middle" font-size="9.5" fill="#5a6b6f">съёмка/QR, выбор</text><text x="120" y="228" text-anchor="middle" font-size="9.5" fill="#5a6b6f">локации</text><circle cx="120" cy="320" r="16" fill="#0b5563"/><circle cx="120" cy="316" r="6" fill="#fff"/><rect x="111" y="321" width="18" height="12" rx="5" fill="#fff"/><text x="120" y="352" text-anchor="middle" font-size="12" font-weight="bold" fill="#14313a">Гость (веб-</text><text x="120" y="366" text-anchor="middle" font-size="12" font-weight="bold" fill="#14313a">версия)</text><text x="120" y="380" text-anchor="middle" font-size="9.5" fill="#5a6b6f">загрузка фото в</text><text x="120" y="392" text-anchor="middle" font-size="9.5" fill="#5a6b6f">браузере</text><circle cx="120" cy="470" r="16" fill="#0b5563"/><circle cx="120" cy="466" r="6" fill="#fff"/><rect x="111" y="471" width="18" height="12" rx="5" fill="#fff"/><text x="120" y="502" text-anchor="middle" font-size="12" font-weight="bold" fill="#14313a">Оператор / Админ</text><text x="120" y="516" text-anchor="middle" font-size="9.5" fill="#5a6b6f">мониторинг, локации,</text><text x="120" y="528" text-anchor="middle" font-size="9.5" fill="#5a6b6f">бренд</text><rect x="730" y="80" width="220" height="72" rx="10" fill="#e8f1f2" stroke="#0b5563" stroke-width="2"/><text x="840.0" y="112.0" text-anchor="middle" font-size="13.5" font-weight="bold" fill="#14313a">Gemini «Nano Banana Pro»</text><text x="840.0" y="133.0" text-anchor="middle" font-size="10.5" fill="#3a555c">основная генерация, image-to-image</text><rect x="730" y="168" width="220" height="64" rx="10" fill="#e8f1f2" stroke="#0b5563" stroke-width="2"/><text x="840.0" y="187.5" text-anchor="middle" font-size="13.5" font-weight="bold" fill="#14313a">Replicate</text><text x="840.0" y="204.5" text-anchor="middle" font-size="13.5" font-weight="bold" fill="#14313a">(Flux/SDXL/InstantID)</text><text x="840.0" y="225.5" text-anchor="middle" font-size="10.5" fill="#3a555c">альтернатива / резерв провайдера</text><rect x="730" y="248" width="220" height="60" rx="10" fill="#e8f1f2" stroke="#0b5563" stroke-width="2"/><text x="840.0" y="274.0" text-anchor="middle" font-size="13.5" font-weight="bold" fill="#14313a">Локальный GPU (offline)</text><text x="840.0" y="295.0" text-anchor="middle" font-size="10.5" fill="#3a555c">резерв при обрыве связи</text><rect x="730" y="324" width="220" height="60" rx="10" fill="#e8f1f2" stroke="#0b5563" stroke-width="2"/><text x="840.0" y="341.5" text-anchor="middle" font-size="13.5" font-weight="bold" fill="#14313a">Референсы локаций +</text><text x="840.0" y="358.5" text-anchor="middle" font-size="13.5" font-weight="bold" fill="#14313a">промпты</text><text x="840.0" y="379.5" text-anchor="middle" font-size="10.5" fill="#3a555c">подготовленные сцены Сахалина</text><rect x="730" y="400" width="220" height="58" rx="10" fill="#e8f1f2" stroke="#0b5563" stroke-width="2"/><text x="840.0" y="425.0" text-anchor="middle" font-size="13.5" font-weight="bold" fill="#14313a">Сублимационный принтер</text><text x="840.0" y="446.0" text-anchor="middle" font-size="10.5" fill="#3a555c">печать фото-карточек</text><rect x="730" y="474" width="220" height="58" rx="10" fill="#e8f1f2" stroke="#0b5563" stroke-width="2"/><text x="840.0" y="499.0" text-anchor="middle" font-size="13.5" font-weight="bold" fill="#14313a">Хранилище цифровых версий</text><text x="840.0" y="520.0" text-anchor="middle" font-size="10.5" fill="#3a555c">QR / короткая ссылка</text><line x1="148" y1="180" x2="360" y2="310" stroke="#4a8a94" stroke-width="2" marker-end="url(#arr)"/><rect x="215.9" y="236.0" width="76.2" height="16" rx="3" fill="#ffffff" opacity="0.92"/><text x="254.0" y="248.0" text-anchor="middle" font-size="10" fill="#3a555c">фото, выбор</text><line x1="148" y1="320" x2="360" y2="330" stroke="#4a8a94" stroke-width="2" marker-end="url(#arr)"/><rect x="219.0" y="316.0" width="70.0" height="16" rx="3" fill="#ffffff" opacity="0.92"/><text x="254.0" y="328.0" text-anchor="middle" font-size="10" fill="#3a555c">фото (веб)</text><line x1="148" y1="455" x2="360" y2="380" stroke="#4a8a94" stroke-width="2" marker-end="url(#arr)"/><rect x="219.0" y="408.5" width="70.0" height="16" rx="3" fill="#ffffff" opacity="0.92"/><text x="254.0" y="420.5" text-anchor="middle" font-size="10" fill="#3a555c">мониторинг</text><line x1="640" y1="300" x2="730" y2="120" stroke="#4a8a94" stroke-width="2" marker-end="url(#arr)"/><rect x="628.3" y="201.0" width="113.4" height="16" rx="3" fill="#ffffff" opacity="0.92"/><text x="685.0" y="213.0" text-anchor="middle" font-size="10" fill="#3a555c">задание генерации</text><line x1="640" y1="312" x2="730" y2="200" stroke="#4a8a94" stroke-width="2" marker-end="url(#arr)"/><rect x="643.8" y="247.0" width="82.4" height="16" rx="3" fill="#ffffff" opacity="0.92"/><text x="685.0" y="259.0" text-anchor="middle" font-size="10" fill="#3a555c">альтернатива</text><line x1="640" y1="330" x2="730" y2="278" stroke="#4a8a94" stroke-width="2" stroke-dasharray="6 4" marker-end="url(#arr)"/><rect x="656.2" y="295.0" width="57.6" height="16" rx="3" fill="#ffffff" opacity="0.92"/><text x="685.0" y="307.0" text-anchor="middle" font-size="10" fill="#3a555c">fallback</text><line x1="640" y1="352" x2="730" y2="354" stroke="#4a8a94" stroke-width="2" marker-end="url(#arr)"/><rect x="628.3" y="344.0" width="113.4" height="16" rx="3" fill="#ffffff" opacity="0.92"/><text x="685.0" y="356.0" text-anchor="middle" font-size="10" fill="#3a555c">референс + промпт</text><line x1="640" y1="372" x2="730" y2="428" stroke="#4a8a94" stroke-width="2" marker-end="url(#arr)"/><rect x="662.4" y="391.0" width="45.2" height="16" rx="3" fill="#ffffff" opacity="0.92"/><text x="685.0" y="403.0" text-anchor="middle" font-size="10" fill="#3a555c">печать</text><line x1="640" y1="392" x2="730" y2="502" stroke="#4a8a94" stroke-width="2" marker-end="url(#arr)"/><rect x="637.6" y="438.0" width="94.8" height="16" rx="3" fill="#ffffff" opacity="0.92"/><text x="685.0" y="450.0" text-anchor="middle" font-size="10" fill="#3a555c">сохранение, QR</text></svg>