<svg xmlns="http://www.w3.org/2000/svg" width="1040" height="1040" viewBox="-0.0 -220.0 1040 1040" font-family="Helvetica,Arial,sans-serif"><rect x="-0.0" y="-220.0" width="1040" height="1040" fill="#ffffff"/><text x="520.0" y="34" text-anchor="middle" font-size="20" font-weight="bold" fill="#0b5563">Схема развёртывания стенда</text><defs><marker id="arr" markerWidth="10" markerHeight="10" refX="8" refY="3" orient="auto" markerUnits="strokeWidth"><path d="M0,0 L8,3 L0,6 Z" fill="#4a8a94"/></marker></defs><rect x="50" y="80" width="560" height="470" rx="16" fill="#f7fafa" stroke="#c3ccce" stroke-dasharray="6 5"/><text x="70" y="108" font-size="14" font-weight="bold" fill="#14707f">Физический стенд (площадка мероприятия)</text><rect x="80" y="130" width="240" height="80" rx="10" fill="#e8f1f2" stroke="#0b5563" stroke-width="2"/><text x="200.0" y="166.0" text-anchor="middle" font-size="13.5" font-weight="bold" fill="#14313a">Вычислительный модуль</text><text x="200.0" y="187.0" text-anchor="middle" font-size="10.5" fill="#3a555c">мини-ПК + GPU, Linux, Docker</text><rect x="360" y="130" width="220" height="80" rx="10" fill="#e8f1f2" stroke="#0b5563" stroke-width="2"/><text x="470.0" y="166.0" text-anchor="middle" font-size="13.5" font-weight="bold" fill="#14313a">Сенсорный экран ≥15&quot;</text><text x="470.0" y="187.0" text-anchor="middle" font-size="10.5" fill="#3a555c">киоск-режим, мультитач</text><rect x="80" y="240" width="240" height="80" rx="10" fill="#e8f1f2" stroke="#0b5563" stroke-width="2"/><text x="200.0" y="276.0" text-anchor="middle" font-size="13.5" font-weight="bold" fill="#14313a">Камера Full HD</text><text x="200.0" y="297.0" text-anchor="middle" font-size="10.5" fill="#3a555c">портретная съёмка</text><rect x="360" y="240" width="220" height="80" rx="10" fill="#e8f1f2" stroke="#0b5563" stroke-width="2"/><text x="470.0" y="276.0" text-anchor="middle" font-size="13.5" font-weight="bold" fill="#14313a">Кольцевой свет</text><text x="470.0" y="297.0" text-anchor="middle" font-size="10.5" fill="#3a555c">равномерное освещение</text><rect x="80" y="350" width="240" height="80" rx="10" fill="#e8f1f2" stroke="#0b5563" stroke-width="2"/><text x="200.0" y="386.0" text-anchor="middle" font-size="13.5" font-weight="bold" fill="#14313a">Сублимационный принтер</text><text x="200.0" y="407.0" text-anchor="middle" font-size="10.5" fill="#3a555c">мгновенная печать</text><rect x="360" y="350" width="220" height="80" rx="10" fill="#e8f1f2" stroke="#0b5563" stroke-width="2"/><text x="470.0" y="386.0" text-anchor="middle" font-size="13.5" font-weight="bold" fill="#14313a">Питание 220 В</text><text x="470.0" y="407.0" text-anchor="middle" font-size="10.5" fill="#3a555c">ИБП по необходимости</text><rect x="80" y="460" width="500" height="70" rx="10" fill="#e8f1f2" stroke="#0b5563" stroke-width="2"/><text x="330.0" y="491.0" text-anchor="middle" font-size="13.5" font-weight="bold" fill="#14313a">Брендированная стойка / корпус</text><text x="330.0" y="512.0" text-anchor="middle" font-size="10.5" fill="#3a555c">антивандальное исполнение, безопасные края</text><rect x="680" y="120" width="300" height="360" rx="16" fill="#eef6f7" stroke="#0b5563" stroke-dasharray="6 5"/><text x="700" y="148" font-size="14" font-weight="bold" fill="#0b5563">Интернет / облако</text><rect x="710" y="170" width="240" height="70" rx="10" fill="#e8f1f2" stroke="#0b5563" stroke-width="2"/><text x="830.0" y="201.0" text-anchor="middle" font-size="13.5" font-weight="bold" fill="#14313a">Облачная модель генерации</text><text x="830.0" y="222.0" text-anchor="middle" font-size="10.5" fill="#3a555c">основной режим</text><rect x="710" y="260" width="240" height="70" rx="10" fill="#e8f1f2" stroke="#0b5563" stroke-width="2"/><text x="830.0" y="291.0" text-anchor="middle" font-size="13.5" font-weight="bold" fill="#14313a">Хранилище цифровых версий</text><text x="830.0" y="312.0" text-anchor="middle" font-size="10.5" fill="#3a555c">QR / ссылки</text><rect x="710" y="350" width="240" height="70" rx="10" fill="#e8f1f2" stroke="#0b5563" stroke-width="2"/><text x="830.0" y="381.0" text-anchor="middle" font-size="13.5" font-weight="bold" fill="#14313a">Облачный мониторинг (опц.)</text><text x="830.0" y="402.0" text-anchor="middle" font-size="10.5" fill="#3a555c">телеметрия стенда</text><line x1="320" y1="170" x2="360" y2="170" stroke="#4a8a94" stroke-width="2" marker-end="url(#arr)"/><line x1="320" y1="280" x2="360" y2="280" stroke="#4a8a94" stroke-width="2" marker-end="url(#arr)"/><line x1="580" y1="175" x2="710" y2="205" stroke="#4a8a94" stroke-width="2" marker-end="url(#arr)"/><rect x="585.2" y="181.0" width="119.60000000000001" height="16" rx="3" fill="#ffffff" opacity="0.92"/><text x="645.0" y="193.0" text-anchor="middle" font-size="10" fill="#3a555c">Wi-Fi/LTE + резерв</text><line x1="580" y1="300" x2="710" y2="295" stroke="#4a8a94" stroke-width="2" marker-end="url(#arr)"/><rect x="610.0" y="288.5" width="70.0" height="16" rx="3" fill="#ffffff" opacity="0.92"/><text x="645.0" y="300.5" text-anchor="middle" font-size="10" fill="#3a555c">сохранение</text></svg>