<svg xmlns="http://www.w3.org/2000/svg" width="1040" height="1040" viewBox="-0.0 -200.0 1040 1040" font-family="Helvetica,Arial,sans-serif"><rect x="-0.0" y="-200.0" width="1040" height="1040" fill="#ffffff"/><text x="520.0" y="34" text-anchor="middle" font-size="20" font-weight="bold" fill="#0b5563">Модель данных (ER)</text><defs><marker id="arr" markerWidth="10" markerHeight="10" refX="8" refY="3" orient="auto" markerUnits="strokeWidth"><path d="M0,0 L8,3 L0,6 Z" fill="#4a8a94"/></marker></defs><rect x="60" y="90" width="210" height="130" rx="8" fill="#fff" stroke="#0b5563" stroke-width="2"/><rect x="60" y="90" width="210" height="28" rx="8" fill="#0b5563"/><text x="165.0" y="109" text-anchor="middle" font-size="12.5" font-weight="bold" fill="#fff">sessions</text><text x="72" y="136" font-size="10.5" fill="#14313a">id (PK)</text><text x="72" y="156" font-size="10.5" fill="#14313a">started_at</text><text x="72" y="176" font-size="10.5" fill="#14313a">status</text><text x="72" y="196" font-size="10.5" fill="#14313a">consent</text><text x="72" y="216" font-size="10.5" fill="#14313a">lang</text><rect x="400" y="90" width="210" height="130" rx="8" fill="#fff" stroke="#0b5563" stroke-width="2"/><rect x="400" y="90" width="210" height="28" rx="8" fill="#0b5563"/><text x="505.0" y="109" text-anchor="middle" font-size="12.5" font-weight="bold" fill="#fff">generations</text><text x="412" y="136" font-size="10.5" fill="#14313a">id (PK)</text><text x="412" y="156" font-size="10.5" fill="#14313a">session_id (FK)</text><text x="412" y="176" font-size="10.5" fill="#14313a">location_id (FK)</text><text x="412" y="196" font-size="10.5" fill="#14313a">model, mode</text><text x="412" y="216" font-size="10.5" fill="#14313a">duration_s, status</text><rect x="760" y="90" width="210" height="130" rx="8" fill="#fff" stroke="#0b5563" stroke-width="2"/><rect x="760" y="90" width="210" height="28" rx="8" fill="#0b5563"/><text x="865.0" y="109" text-anchor="middle" font-size="12.5" font-weight="bold" fill="#fff">locations</text><text x="772" y="136" font-size="10.5" fill="#14313a">id (PK)</text><text x="772" y="156" font-size="10.5" fill="#14313a">name</text><text x="772" y="176" font-size="10.5" fill="#14313a">prompt_preset</text><text x="772" y="196" font-size="10.5" fill="#14313a">reference_img</text><text x="772" y="216" font-size="10.5" fill="#14313a">enabled</text><rect x="760" y="300" width="210" height="110" rx="8" fill="#fff" stroke="#0b5563" stroke-width="2"/><rect x="760" y="300" width="210" height="28" rx="8" fill="#0b5563"/><text x="865.0" y="319" text-anchor="middle" font-size="12.5" font-weight="bold" fill="#fff">brandings</text><text x="772" y="346" font-size="10.5" fill="#14313a">id (PK)</text><text x="772" y="366" font-size="10.5" fill="#14313a">event_name</text><text x="772" y="386" font-size="10.5" fill="#14313a">logos[] (до 3)</text><text x="772" y="406" font-size="10.5" fill="#14313a">frame, caption</text><rect x="400" y="320" width="210" height="110" rx="8" fill="#fff" stroke="#0b5563" stroke-width="2"/><rect x="400" y="320" width="210" height="28" rx="8" fill="#0b5563"/><text x="505.0" y="339" text-anchor="middle" font-size="12.5" font-weight="bold" fill="#fff">prints</text><text x="412" y="366" font-size="10.5" fill="#14313a">id (PK)</text><text x="412" y="386" font-size="10.5" fill="#14313a">generation_id (FK)</text><text x="412" y="406" font-size="10.5" fill="#14313a">printed_at</text><text x="412" y="426" font-size="10.5" fill="#14313a">status</text><rect x="400" y="470" width="210" height="110" rx="8" fill="#fff" stroke="#0b5563" stroke-width="2"/><rect x="400" y="470" width="210" height="28" rx="8" fill="#0b5563"/><text x="505.0" y="489" text-anchor="middle" font-size="12.5" font-weight="bold" fill="#fff">digital_deliveries</text><text x="412" y="516" font-size="10.5" fill="#14313a">id (PK)</text><text x="412" y="536" font-size="10.5" fill="#14313a">generation_id (FK)</text><text x="412" y="556" font-size="10.5" fill="#14313a">qr_url</text><text x="412" y="576" font-size="10.5" fill="#14313a">expires_at</text><rect x="60" y="300" width="210" height="110" rx="8" fill="#fff" stroke="#0b5563" stroke-width="2"/><rect x="60" y="300" width="210" height="28" rx="8" fill="#0b5563"/><text x="165.0" y="319" text-anchor="middle" font-size="12.5" font-weight="bold" fill="#fff">events_log</text><text x="72" y="346" font-size="10.5" fill="#14313a">id (PK)</text><text x="72" y="366" font-size="10.5" fill="#14313a">session_id (FK)</text><text x="72" y="386" font-size="10.5" fill="#14313a">type, payload</text><text x="72" y="406" font-size="10.5" fill="#14313a">created_at</text><line x1="270" y1="120" x2="400" y2="120" stroke="#4a8a94" stroke-width="2" marker-end="url(#arr)"/><rect x="318.6" y="111.0" width="32.8" height="16" rx="3" fill="#ffffff" opacity="0.92"/><text x="335.0" y="123.0" text-anchor="middle" font-size="10" fill="#3a555c">1..N</text><line x1="610" y1="120" x2="760" y2="120" stroke="#4a8a94" stroke-width="2" marker-end="url(#arr)"/><rect x="668.6" y="111.0" width="32.8" height="16" rx="3" fill="#ffffff" opacity="0.92"/><text x="685.0" y="123.0" text-anchor="middle" font-size="10" fill="#3a555c">N..1</text><line x1="480" y1="220" x2="480" y2="320" stroke="#4a8a94" stroke-width="2" marker-end="url(#arr)"/><rect x="463.6" y="261.0" width="32.8" height="16" rx="3" fill="#ffffff" opacity="0.92"/><text x="480.0" y="273.0" text-anchor="middle" font-size="10" fill="#3a555c">1..1</text><line x1="480" y1="430" x2="480" y2="470" stroke="#4a8a94" stroke-width="2" marker-end="url(#arr)"/><line x1="140" y1="220" x2="140" y2="300" stroke="#4a8a94" stroke-width="2" marker-end="url(#arr)"/><rect x="123.6" y="251.0" width="32.8" height="16" rx="3" fill="#ffffff" opacity="0.92"/><text x="140.0" y="263.0" text-anchor="middle" font-size="10" fill="#3a555c">1..N</text><line x1="800" y1="220" x2="800" y2="300" stroke="#4a8a94" stroke-width="2" marker-end="url(#arr)"/></svg>