<svg xmlns="http://www.w3.org/2000/svg" width="1040" height="1040" viewBox="-0.0 -160.0 1040 1040" font-family="Helvetica,Arial,sans-serif"><rect x="-0.0" y="-160.0" width="1040" height="1040" fill="#ffffff"/><text x="520.0" y="34" text-anchor="middle" font-size="20" font-weight="bold" fill="#0b5563">C4 · Контейнеры — устройство стенда</text><defs><marker id="arr" markerWidth="10" markerHeight="10" refX="8" refY="3" orient="auto" markerUnits="strokeWidth"><path d="M0,0 L8,3 L0,6 Z" fill="#4a8a94"/></marker></defs><rect x="60" y="90" width="300" height="150" rx="10" fill="#ffffff" stroke="#c3ccce" stroke-width="2"/><text x="210.0" y="162.0" text-anchor="middle" font-size="13.5" font-weight="bold" fill="#14313a">Wall: Вычислительный модуль стенда</text><rect x="40" y="70" width="700" height="600" rx="16" fill="#f7fafa" stroke="#c3ccce" stroke-dasharray="6 5"/><text x="60" y="96" font-size="13" font-weight="bold" fill="#14707f">Стенд (автономный киоск, Linux)</text><text x="210.0" y="179.0" text-anchor="middle" font-size="13.5" font-weight="bold" fill="#14313a">(мини-ПК)</text><rect x="80" y="120" width="280" height="90" rx="10" fill="#e8f1f2" stroke="#0b5563" stroke-width="2"/><text x="220.0" y="161.0" text-anchor="middle" font-size="13.5" font-weight="bold" fill="#14313a">Веб-приложение (React)</text><text x="220.0" y="182.0" text-anchor="middle" font-size="10.5" fill="#3a555c">iPad · гид-доступ, полноэкранный UI, тач</text><rect x="420" y="120" width="280" height="90" rx="10" fill="#e8f1f2" stroke="#0b5563" stroke-width="2"/><text x="560.0" y="161.0" text-anchor="middle" font-size="13.5" font-weight="bold" fill="#14313a">Бэкенд / оркестратор цикла (API)</text><text x="560.0" y="182.0" text-anchor="middle" font-size="10.5" fill="#3a555c">сессии, очереди, 2–3 варианта</text><rect x="80" y="240" width="280" height="90" rx="10" fill="#e8f1f2" stroke="#0b5563" stroke-width="2"/><text x="220.0" y="274.5" text-anchor="middle" font-size="13.5" font-weight="bold" fill="#14313a">Шлюз генерации</text><text x="220.0" y="295.5" text-anchor="middle" font-size="10.5" fill="#3a555c">Gemini Nano Banana · Replicate · GPU; ретраи,</text><text x="220.0" y="308.5" text-anchor="middle" font-size="10.5" fill="#3a555c">fallback</text><rect x="420" y="240" width="280" height="90" rx="10" fill="#e8f1f2" stroke="#0b5563" stroke-width="2"/><text x="560.0" y="281.0" text-anchor="middle" font-size="13.5" font-weight="bold" fill="#14313a">Композитинг карточки</text><text x="560.0" y="302.0" text-anchor="middle" font-size="10.5" fill="#3a555c">шаблон + фикс. логотипы + подпись</text><rect x="80" y="360" width="280" height="90" rx="10" fill="#e8f1f2" stroke="#0b5563" stroke-width="2"/><text x="220.0" y="401.0" text-anchor="middle" font-size="13.5" font-weight="bold" fill="#14313a">Принт-агент (CUPS)</text><text x="220.0" y="422.0" text-anchor="middle" font-size="10.5" fill="#3a555c">печать borderless, очередь, статусы</text><rect x="420" y="360" width="280" height="90" rx="10" fill="#e8f1f2" stroke="#0b5563" stroke-width="2"/><text x="560.0" y="401.0" text-anchor="middle" font-size="13.5" font-weight="bold" fill="#14313a">Модуль цифровой выдачи</text><text x="560.0" y="422.0" text-anchor="middle" font-size="10.5" fill="#3a555c">QR / ссылка, автоудаление</text><rect x="80" y="480" width="280" height="90" rx="10" fill="#e8f1f2" stroke="#0b5563" stroke-width="2"/><text x="220.0" y="521.0" text-anchor="middle" font-size="13.5" font-weight="bold" fill="#14313a">Локальная БД (SQLite/Postgres)</text><text x="220.0" y="542.0" text-anchor="middle" font-size="10.5" fill="#3a555c">сессии, генерации, статистика</text><rect x="420" y="480" width="280" height="90" rx="10" fill="#e8f1f2" stroke="#0b5563" stroke-width="2"/><text x="560.0" y="521.0" text-anchor="middle" font-size="13.5" font-weight="bold" fill="#14313a">Админ-панель</text><text x="560.0" y="542.0" text-anchor="middle" font-size="10.5" fill="#3a555c">локации, брендирование, мониторинг</text><rect x="800" y="110" width="200" height="72" rx="10" fill="#e8f1f2" stroke="#0b5563" stroke-width="2"/><text x="900.0" y="133.5" text-anchor="middle" font-size="13.5" font-weight="bold" fill="#14313a">Gemini «Nano Banana</text><text x="900.0" y="150.5" text-anchor="middle" font-size="13.5" font-weight="bold" fill="#14313a">Pro»</text><text x="900.0" y="171.5" text-anchor="middle" font-size="10.5" fill="#3a555c">основной провайдер генерации</text><rect x="800" y="196" width="200" height="66" rx="10" fill="#e8f1f2" stroke="#0b5563" stroke-width="2"/><text x="900.0" y="225.0" text-anchor="middle" font-size="13.5" font-weight="bold" fill="#14313a">Replicate</text><text x="900.0" y="246.0" text-anchor="middle" font-size="10.5" fill="#3a555c">Flux/SDXL/InstantID</text><rect x="800" y="276" width="200" height="60" rx="10" fill="#e8f1f2" stroke="#0b5563" stroke-width="2"/><text x="900.0" y="302.0" text-anchor="middle" font-size="13.5" font-weight="bold" fill="#14313a">Локальный GPU</text><text x="900.0" y="323.0" text-anchor="middle" font-size="10.5" fill="#3a555c">diffusion offline</text><rect x="800" y="350" width="200" height="54" rx="10" fill="#e8f1f2" stroke="#0b5563" stroke-width="2"/><text x="900.0" y="373.0" text-anchor="middle" font-size="13.5" font-weight="bold" fill="#14313a">Принтер</text><text x="900.0" y="394.0" text-anchor="middle" font-size="10.5" fill="#3a555c">сублимационный</text><rect x="800" y="420" width="200" height="54" rx="10" fill="#e8f1f2" stroke="#0b5563" stroke-width="2"/><text x="900.0" y="443.0" text-anchor="middle" font-size="13.5" font-weight="bold" fill="#14313a">Хранилище</text><text x="900.0" y="464.0" text-anchor="middle" font-size="10.5" fill="#3a555c">цифровые версии</text><line x1="220" y1="210" x2="220" y2="240" stroke="#4a8a94" stroke-width="2" marker-end="url(#arr)"/><line x1="360" y1="165" x2="420" y2="165" stroke="#4a8a94" stroke-width="2" marker-end="url(#arr)"/><rect x="364.3" y="156.0" width="51.4" height="16" rx="3" fill="#ffffff" opacity="0.92"/><text x="390.0" y="168.0" text-anchor="middle" font-size="10" fill="#3a555c">задание</text><line x1="560" y1="210" x2="560" y2="240" stroke="#4a8a94" stroke-width="2" marker-end="url(#arr)"/><line x1="220" y1="330" x2="220" y2="360" stroke="#4a8a94" stroke-width="2" marker-end="url(#arr)"/><line x1="220" y1="450" x2="220" y2="480" stroke="#4a8a94" stroke-width="2" marker-end="url(#arr)"/><line x1="560" y1="330" x2="560" y2="360" stroke="#4a8a94" stroke-width="2" marker-end="url(#arr)"/><line x1="560" y1="450" x2="560" y2="480" stroke="#4a8a94" stroke-width="2" marker-end="url(#arr)"/><line x1="360" y1="270" x2="800" y2="146" stroke="#4a8a94" stroke-width="2" marker-end="url(#arr)"/><rect x="551.2" y="199.0" width="57.6" height="16" rx="3" fill="#ffffff" opacity="0.92"/><text x="580.0" y="211.0" text-anchor="middle" font-size="10" fill="#3a555c">основной</text><line x1="360" y1="285" x2="800" y2="229" stroke="#4a8a94" stroke-width="2" marker-end="url(#arr)"/><rect x="538.8" y="248.0" width="82.4" height="16" rx="3" fill="#ffffff" opacity="0.92"/><text x="580.0" y="260.0" text-anchor="middle" font-size="10" fill="#3a555c">альтернатива</text><line x1="360" y1="300" x2="800" y2="306" stroke="#4a8a94" stroke-width="2" stroke-dasharray="6 4" marker-end="url(#arr)"/><rect x="551.2" y="294.0" width="57.6" height="16" rx="3" fill="#ffffff" opacity="0.92"/><text x="580.0" y="306.0" text-anchor="middle" font-size="10" fill="#3a555c">fallback</text><line x1="360" y1="405" x2="800" y2="377" stroke="#4a8a94" stroke-width="2" marker-end="url(#arr)"/><rect x="557.4" y="382.0" width="45.2" height="16" rx="3" fill="#ffffff" opacity="0.92"/><text x="580.0" y="394.0" text-anchor="middle" font-size="10" fill="#3a555c">печать</text><line x1="700" y1="510" x2="800" y2="447" stroke="#4a8a94" stroke-width="2" marker-end="url(#arr)"/><rect x="715.0" y="469.5" width="70.0" height="16" rx="3" fill="#ffffff" opacity="0.92"/><text x="750.0" y="481.5" text-anchor="middle" font-size="10" fill="#3a555c">сохранение</text></svg>